PathFileType	4	(X/Y/Z)	 s06c0101.trc
DataRate	CameraRate	NumFrames	NumMarkers	Units	OrigDataRate	OrigDataStartFrame	OrigNumFrames
200	200	4	49	mm	200	1751	2000
Frame#	Time	racr			lacr			c7			jug			rlel			rdr			llel			ldr			s2			lic			ric			lasi			rasi			rpsi			lpsi			rgt			lgt			rth1			rth2			rth3			rth4			rlfc			rmfc			rsh1			rsh2			rsh3			rsh4			rlmal			rmmal			rcal			rtoe			rmt5			lth1			lth2			lth4			lth3			llfc			lmfc			llmal			lcal			lmt5			lsh1			lsh2			lsh3			lsh4			ltoe			SBIKE			LBIKE			RBIKE			
		X1	Y1	Z1	X2	Y2	Z2	X3	Y3	Z3	X4	Y4	Z4	X5	Y5	Z5	X6	Y6	Z6	X7	Y7	Z7	X8	Y8	Z8	X9	Y9	Z9	X10	Y10	Z10	X11	Y11	Z11	X12	Y12	Z12	X13	Y13	Z13	X14	Y14	Z14	X15	Y15	Z15	X16	Y16	Z16	X17	Y17	Z17	X18	Y18	Z18	X19	Y19	Z19	X20	Y20	Z20	X21	Y21	Z21	X22	Y22	Z22	X23	Y23	Z23	X24	Y24	Z24	X25	Y25	Z25	X26	Y26	Z26	X27	Y27	Z27	X28	Y28	Z28	X29	Y29	Z29	X30	Y30	Z30	X31	Y31	Z31	X32	Y32	Z32	X33	Y33	Z33	X34	Y34	Z34	X35	Y35	Z35	X36	Y36	Z36	X37	Y37	Z37	X38	Y38	Z38	X39	Y39	Z39	X40	Y40	Z40	X41	Y41	Z41	X42	Y42	Z42	X43	Y43	Z43	X44	Y44	Z44	X45	Y45	Z45	X46	Y46	Z46	X47	Y47	Z47	X48	Y48	Z48	X49	Y49	Z49	
1751	8.7550	459.487870	1332.543038	-47.254251	483.708225	1341.081173	-358.399691	425.818662	1432.517391	-201.388854	462.446815	1252.508205	-197.251723	526.071753	1078.263807	29.089466	712.527550	922.488977	-45.626683	528.764940	1081.671829	-442.254586	716.124946	918.288952	-380.122785	-52.139809	1119.471527	-207.177527	123.141621	1113.098595	-379.364663	104.740299	1092.744159	-54.530547	143.263025	1056.913553	-343.677417	144.355792	1052.352407	-90.471811	-20.919839	1162.308806	-177.881438	-26.731211	1158.776052	-241.148947	78.976321	1006.504504	-24.639150	96.223339	1054.669183	-411.411223	165.605707	900.784683	-5.205536	241.127761	849.659183	-9.823754	277.648671	771.826561	-22.952272	267.453638	875.576571	-22.593953	328.154097	682.245269	-45.032094	324.701932	660.626097	-155.064937	312.634099	564.335518	-19.789060	318.458671	479.651282	-43.678519	286.054979	398.883439	-46.742390	338.859164	481.671849	-78.148315	263.317837	322.567445	-54.112438	299.709495	324.018550	-144.910688	199.135565	310.495803	-103.522365	456.085978	208.950375	-101.009199	356.651573	218.444383	-33.587652	166.925509	969.886670	-426.291022	251.352763	947.190490	-424.637936	269.406276	976.245163	-408.499305	314.211496	883.488486	-426.787054	372.152547	789.046075	-398.903832	378.448971	771.973061	-282.964356	82.110432	565.274932	-376.814385	14.111144	590.284817	-328.681849	118.406469	425.255629	-403.703440	296.310740	714.061544	-416.899031	243.574424	649.174220	-394.092383	163.730256	612.287672	-395.116080	261.802600	633.705736	-362.897035	183.582342	367.039407	-347.654606	-204.084905	870.526068	-212.687979	-48.670892	83.977238	-419.527041	-50.201727	79.720638	-22.203787	
1752	8.7600	460.377029	1332.937554	-47.934499	483.894219	1341.534390	-359.305838	426.141274	1432.976184	-202.069733	463.056944	1252.981901	-197.907065	526.228730	1078.517214	29.153673	712.648775	922.451077	-45.626442	528.832839	1081.841359	-442.383001	716.087549	918.202084	-379.794918	-51.929196	1119.157848	-207.009295	123.457720	1113.733624	-379.564397	105.670426	1092.591478	-54.486924	143.392509	1058.431456	-343.552151	145.080555	1051.786835	-90.519197	-21.849905	1163.326581	-175.298011	-26.140591	1159.240545	-240.675016	79.268115	1005.751960	-24.855820	96.461540	1057.293492	-411.025185	163.921925	898.230602	-5.189854	238.274106	845.354683	-9.979780	273.013747	766.767453	-23.280834	265.191609	870.640638	-22.715960	322.344288	676.414583	-45.782804	318.306604	654.965551	-155.817660	307.391925	558.922254	-20.171740	313.570325	474.169938	-44.062889	281.457129	393.284958	-46.868571	333.831665	476.129727	-78.516047	259.375058	316.818782	-54.213794	295.674216	317.866110	-144.950749	195.326609	305.426821	-103.678143	450.497778	199.956237	-100.929473	351.206481	211.127339	-33.560135	167.540024	973.898268	-426.026228	252.311658	952.703057	-424.325216	269.918567	981.951335	-408.078461	316.310190	890.006701	-426.803174	376.167147	796.383313	-398.836811	382.424329	779.206550	-282.692176	85.579695	572.509025	-376.724118	16.853896	596.372080	-328.620955	123.994791	433.279357	-403.620097	300.436306	721.127928	-416.687620	247.583515	656.286732	-393.962957	167.584198	619.654240	-394.958373	265.579414	640.898822	-362.612136	190.267095	376.187334	-347.635762	-204.062876	870.536984	-212.707587	-48.661687	83.987884	-419.527111	-50.215143	79.743958	-22.180237	
1753	8.7650	461.194639	1333.393524	-48.661524	484.056973	1342.056535	-360.180067	426.527688	1433.440955	-202.873764	463.724324	1253.526374	-198.524497	526.586283	1078.894781	29.012060	712.760359	922.370563	-45.674842	528.972642	1082.113309	-442.529449	716.104704	918.183844	-379.578010	-51.192491	1120.227198	-206.196295	123.786752	1114.503594	-379.816410	106.558135	1092.463814	-54.434756	143.626472	1060.015519	-343.542609	145.712271	1051.636296	-90.323655	-19.653834	1162.695777	-176.838337	-25.721964	1159.688449	-240.213339	79.290213	1004.972250	-25.150575	96.662398	1059.976237	-410.655270	162.479718	895.941556	-5.147741	235.297787	841.397757	-10.268807	268.388977	762.120567	-23.571108	262.839799	866.134246	-22.876641	316.517578	670.881064	-46.701598	311.851501	649.529994	-156.626029	302.314134	553.872241	-20.558353	308.524141	468.940024	-44.380779	276.804041	387.934031	-46.922970	328.760027	471.107642	-78.918388	255.160290	311.232801	-54.331256	291.842944	311.544770	-144.833518	191.151466	301.079533	-103.751608	444.539974	191.021814	-100.934528	345.346659	204.071366	-33.586915	168.024406	977.879662	-425.753810	253.157686	958.125856	-424.023222	270.239097	987.559559	-407.484599	318.419237	896.705581	-427.316356	380.007403	803.796378	-398.709353	386.257308	786.710127	-282.489475	89.169090	579.396138	-376.773967	19.499719	602.052206	-328.462571	129.904787	440.895666	-403.513108	304.463216	728.197436	-416.511425	251.448546	663.502357	-393.817184	171.540795	626.790396	-394.821582	269.554099	648.156319	-362.448040	197.771810	385.476614	-347.289607	-204.066480	870.532007	-212.682299	-48.676342	83.979749	-419.527829	-50.221530	79.745129	-22.176965	
1754	8.7700	462.105450	1333.874806	-49.361014	484.211661	1342.615665	-360.982622	426.941956	1433.860639	-203.558428	464.504616	1254.179637	-199.051729	527.013478	1079.405827	28.827913	712.876347	922.286178	-45.732825	529.168332	1082.420433	-442.617917	716.116336	918.134674	-379.397915	-50.926529	1120.240090	-206.688787	124.130355	1115.232988	-380.101140	107.403547	1092.359730	-54.374344	143.602467	1061.500098	-343.333059	146.249914	1051.196034	-90.182100	-19.091382	1163.031355	-176.401865	-25.237354	1160.169189	-239.716908	79.426534	1004.459233	-25.365651	96.585295	1062.775290	-409.864942	161.629047	894.116322	-4.329590	232.308475	837.614445	-10.536848	263.654016	757.699580	-23.594244	259.947854	861.873116	-23.304394	310.917985	665.873960	-47.496232	305.378689	644.389880	-157.454907	296.931551	549.104664	-21.167325	303.355284	464.369570	-44.766156	271.921160	383.200430	-46.916180	323.498015	466.330182	-79.328140	250.781732	306.264875	-54.405100	286.017072	305.702935	-144.706653	186.745042	297.281799	-103.810831	438.073134	182.264096	-100.915483	339.056363	197.259341	-33.616454	168.512065	981.846721	-425.594062	253.914223	963.477903	-423.716681	270.475351	993.077169	-406.890845	320.170424	903.194285	-427.228620	383.840838	811.189070	-398.500839	389.896151	794.112436	-282.084165	92.789022	585.926714	-376.708023	22.252513	607.033915	-328.410691	136.627639	448.890750	-403.774658	308.368194	735.306619	-416.255337	255.446210	670.534314	-393.676306	175.457970	633.876953	-394.708349	273.421102	655.248047	-362.182669	205.415865	395.046829	-347.798420	-204.080095	870.578846	-212.607384	-48.669814	83.997642	-419.537864	-50.223485	79.739993	-22.193372	
